<?xml version="1.0" ?><svg id="Covid-19_1_" style="enable-background:new 0 0 64 64;" version="1.1" viewBox="0 0 64 64" xml:space="preserve" xmlns="http://www.w3.org/2000/svg" xmlns:xlink="http://www.w3.org/1999/xlink"><style type="text/css">
	.st0{fill:none;stroke:#000000;stroke-width:2;stroke-linejoin:round;stroke-miterlimit:10;}
	.st1{fill:none;stroke:#000000;stroke-width:2;stroke-miterlimit:10;}
	.st2{fill:none;stroke:#000000;stroke-width:2;stroke-linecap:round;stroke-linejoin:round;stroke-miterlimit:10;}
</style><g id="_x30_2-Blood_test_tube"><g><path class="st0" d="M41.67,11.52L4.19,49c-3.12,3.12-3.12,8.19,0,11.31s8.19,3.12,11.31,0l37.48-37.48L41.67,11.52z"/><g><rect class="st0" height="12" transform="matrix(0.7071 0.7071 -0.7071 0.7071 24.2487 -32.6751)" width="20" x="41.57" y="6.93"/><line class="st0" x1="49.45" x2="45.2" y1="6.57" y2="10.81"/><line class="st0" x1="52.27" x2="48.03" y1="9.4" y2="13.64"/><line class="st0" x1="55.1" x2="50.86" y1="12.23" y2="16.47"/><line class="st0" x1="57.93" x2="53.69" y1="15.05" y2="19.3"/></g><g><rect class="st0" height="37" transform="matrix(0.7071 0.7071 -0.7071 0.7071 34.0607 -8.9871)" width="16" x="19.88" y="18.12"/><polyline class="st0" points="40.96,23.54 28.94,35.56 23.28,29.9    "/></g></g></g></svg>